<svg width="12" height="10" viewBox="0 0 12 10" fill="none" xmlns="http://www.w3.org/2000/svg">
<path d="M11.5901 1.04041C11.5126 0.962313 11.4205 0.900326 11.3189 0.858025C11.2174 0.815724 11.1085 0.793945 10.9985 0.793945C10.8885 0.793945 10.7796 0.815724 10.6781 0.858025C10.5765 0.900326 10.4844 0.962313 10.4069 1.04041L4.19946 7.25619L1.5915 4.6399C1.51108 4.56221 1.41614 4.50112 1.31211 4.46012C1.20808 4.41913 1.09699 4.39902 0.985189 4.40096C0.873388 4.40289 0.763062 4.42683 0.660511 4.4714C0.557961 4.51597 0.465193 4.5803 0.387505 4.66073C0.309818 4.74115 0.248731 4.83609 0.207734 4.94012C0.166736 5.04415 0.146631 5.15524 0.148565 5.26704C0.150499 5.37884 0.174436 5.48916 0.219007 5.59172C0.263579 5.69427 0.327913 5.78703 0.408336 5.86472L3.60788 9.06427C3.68534 9.14236 3.77749 9.20435 3.87903 9.24665C3.98056 9.28895 4.08947 9.31073 4.19946 9.31073C4.30946 9.31073 4.41836 9.28895 4.5199 9.24665C4.62143 9.20435 4.71359 9.14236 4.79104 9.06427L11.5901 2.26523C11.6747 2.18721 11.7421 2.09251 11.7883 1.98711C11.8345 1.88171 11.8583 1.76789 11.8583 1.65282C11.8583 1.53775 11.8345 1.42393 11.7883 1.31853C11.7421 1.21313 11.6747 1.11843 11.5901 1.04041Z" fill="white"/>
</svg>
